<svg width="124" height="24" fill="none" xmlns="http://www.w3.org/2000/svg"><path fill-rule="evenodd" clip-rule="evenodd" d="M88.428 4.571c.91 0 1.613-.215 2.11-.646.496-.43.744-.977.744-1.64 0-.678-.24-1.23-.72-1.651C90.082.21 89.371 0 88.428 0c-.943 0-1.655.211-2.135.634-.48.422-.72.973-.72 1.652 0 .662.249 1.209.745 1.64.496.43 1.2.645 2.11.645zM9.927 17.627c-1.075.72-2.432 1.081-4.07 1.081-3.441 0-5.394-1.4-5.857-4.199l3.723-.844c.231 1.06.943 1.59 2.134 1.59.81 0 1.216-.216 1.216-.646 0-.15-.054-.27-.161-.36-.108-.092-.344-.204-.708-.336l-1.489-.546-.422-.15a9.483 9.483 0 01-.707-.26 15.497 15.497 0 01-.757-.36 3.793 3.793 0 01-.819-.535 8.53 8.53 0 01-.67-.67 2.546 2.546 0 01-.521-.895A3.404 3.404 0 01.645 9.39c0-1.275.505-2.31 1.514-3.105 1.01-.795 2.275-1.193 3.797-1.193 2.548 0 4.269 1.11 5.162 3.33L7.42 9.465c-.33-.696-.835-1.044-1.513-1.044-.546 0-.82.207-.82.621 0 .15.067.274.2.373.131.1.355.199.67.298l1.439.597c2.68.927 4.061 2.318 4.144 4.174 0 1.374-.538 2.422-1.613 3.142zm11.189-.807c-.778 1.259-1.985 1.888-3.623 1.888-3.028 0-4.542-1.896-4.542-5.69V5.367h5.113v7.156c0 1.474.512 2.21 1.538 2.21 1.01 0 1.514-.736 1.514-2.21V5.366h5.112v13.069h-5.112V16.82zm12.48 1.615V11.28c0-1.475.504-2.212 1.513-2.212 1.026 0 1.54.737 1.54 2.212v7.155h5.111v-7.652c0-3.793-1.513-5.69-4.541-5.69-1.638 0-2.846.63-3.623 1.888V5.366h-5.113v13.069h5.113zm15.383-7.155v7.155h-5.113V5.366h5.113v1.615c.777-1.258 1.985-1.888 3.623-1.888 3.028 0 4.542 1.897 4.542 5.69v7.652H52.03V11.28c0-1.475-.513-2.212-1.538-2.212-1.01 0-1.514.737-1.514 2.212zM64.958 24l8.289-18.634H67.91l-2.532 6.684-2.258-6.684h-5.584l5.435 11.802L59.944 24h5.014zm17.74-6.373c-1.075.72-2.432 1.081-4.07 1.081-3.441 0-5.393-1.4-5.856-4.199l3.722-.844c.232 1.06.943 1.59 2.134 1.59.811 0 1.216-.216 1.216-.646a.45.45 0 00-.16-.36c-.108-.092-.344-.204-.708-.336l-1.49-.546-.421-.15a9.481 9.481 0 01-.707-.26 15.507 15.507 0 01-.757-.36 3.793 3.793 0 01-.82-.535 8.523 8.523 0 01-.67-.67 2.546 2.546 0 01-.52-.895 3.402 3.402 0 01-.174-1.106c0-1.275.504-2.31 1.514-3.105 1.009-.795 2.275-1.193 3.797-1.193 2.548 0 4.268 1.11 5.162 3.33l-3.698 1.043c-.331-.696-.836-1.044-1.514-1.044-.546 0-.819.207-.819.621 0 .15.066.274.199.373.132.1.355.199.67.298l1.439.597c2.68.927 4.062 2.318 4.144 4.174 0 1.374-.537 2.422-1.613 3.142zm8.286-12.26v13.068h-5.112V5.366h5.112zm7.74 13.341c1.737 0 2.977-.63 3.722-1.888v1.615h5.112V.472h-5.112v6.534c-.745-1.275-1.985-1.913-3.723-1.913-1.753 0-3.213.642-4.38 1.926-1.166 1.283-1.75 2.91-1.75 4.882 0 1.97.584 3.598 1.75 4.882 1.166 1.283 2.627 1.925 4.38 1.925zm-.36-4.72c.438.546 1.021.82 1.749.82.728 0 1.311-.274 1.75-.82.438-.547.657-1.243.657-2.087 0-.845-.219-1.54-.657-2.087-.439-.547-1.022-.82-1.75-.82s-1.315.273-1.762.82c-.43.546-.645 1.242-.645 2.087 0 .844.219 1.54.657 2.087zm18.448 4.72c2.597 0 4.624-.753 6.08-2.26l-2.11-2.833c-1.042.845-2.217 1.267-3.524 1.267-.992 0-1.799-.224-2.419-.67-.621-.448-.931-.879-.931-1.293h9.604c.083-.298.124-.687.124-1.167 0-2.054-.674-3.677-2.022-4.87-1.349-1.193-3.073-1.789-5.175-1.789-2.25 0-4.028.671-5.335 2.013-1.307 1.341-1.961 2.956-1.961 4.844 0 1.938.691 3.549 2.072 4.833 1.382 1.283 3.247 1.925 5.597 1.925zm-2.11-9.553c-.496.323-.761.791-.794 1.404h5.112a1.701 1.701 0 00-.794-1.391c-.496-.332-1.083-.497-1.762-.497-.678 0-1.266.161-1.762.484z" fill="#fff"/></svg>